<svg width="21" height="21" viewBox="0 0 21 21" fill="none" xmlns="http://www.w3.org/2000/svg">
<path fill-rule="evenodd" clip-rule="evenodd" d="M15.066 2.07372H6.1605C4.19315 2.07372 2.5983 3.72427 2.5983 5.76034V14.9769C2.5983 17.0129 4.19315 18.6635 6.1605 18.6635H15.066C17.0333 18.6635 18.6282 17.0129 18.6282 14.9769V5.76034C18.6282 3.72427 17.0333 2.07372 15.066 2.07372ZM6.1605 0.230408C3.20948 0.230408 0.8172 2.70624 0.8172 5.76034V14.9769C0.8172 18.031 3.20948 20.5068 6.1605 20.5068H15.066C18.017 20.5068 20.4093 18.031 20.4093 14.9769V5.76034C20.4093 2.70624 18.017 0.230408 15.066 0.230408H6.1605ZM10.6133 14.0552C12.5806 14.0552 14.1755 12.4046 14.1755 10.3685C14.1755 8.33248 12.5806 6.68192 10.6133 6.68192C8.64592 6.68192 7.05107 8.33248 7.05107 10.3685C7.05107 12.4046 8.64592 14.0552 10.6133 14.0552ZM10.6133 15.8985C13.5643 15.8985 15.9566 13.4226 15.9566 10.3685C15.9566 7.31445 13.5643 4.83861 10.6133 4.83861C7.66224 4.83861 5.26997 7.31445 5.26997 10.3685C5.26997 13.4226 7.66224 15.8985 10.6133 15.8985ZM15.9566 5.47235C16.4484 5.47235 16.8471 5.05971 16.8471 4.5507C16.8471 4.04168 16.4484 3.62904 15.9566 3.62904C15.4647 3.62904 15.066 4.04168 15.066 4.5507C15.066 5.05971 15.4647 5.47235 15.9566 5.47235Z" fill="white"/>
</svg>
